<?xml version="1.0" encoding="UTF-8"?><svg xmlns="http://www.w3.org/2000/svg" width="640" height="250" viewBox="0 0 640 250" font-family="system-ui, sans-serif" aria-label="Codebase size"><rect width="100%" height="100%" fill="#f8fafc"/><text x="56" y="22" font-size="13" font-weight="700" fill="#0f172a">Codebase size (lines)</text><line x1="56" y1="208" x2="602" y2="208" stroke="#dbe4ed"/><text x="49" y="212" text-anchor="end" font-size="10" fill="#64748b">0</text><line x1="56" y1="165.5" x2="602" y2="165.5" stroke="#dbe4ed"/><text x="49" y="169.5" text-anchor="end" font-size="10" fill="#64748b">1525</text><line x1="56" y1="123" x2="602" y2="123" stroke="#dbe4ed"/><text x="49" y="127" text-anchor="end" font-size="10" fill="#64748b">3050</text><line x1="56" y1="80.5" x2="602" y2="80.5" stroke="#dbe4ed"/><text x="49" y="84.5" text-anchor="end" font-size="10" fill="#64748b">4575</text><line x1="56" y1="38" x2="602" y2="38" stroke="#dbe4ed"/><text x="49" y="42" text-anchor="end" font-size="10" fill="#64748b">6100</text><line x1="56" y1="38" x2="56" y2="208" stroke="#94a3b8"/><line x1="56" y1="208" x2="602" y2="208" stroke="#94a3b8"/><polyline fill="none" stroke="#2563eb" stroke-width="2" points="56,185.70491803278688 238,176.7032786885246 420,176.7032786885246 602,135.34590163934425"/><polyline fill="none" stroke="#7c3aed" stroke-width="2" points="56,196.57377049180326 238,193.09016393442622 420,193.11803278688524 602,181.80327868852459"/><polyline fill="none" stroke="#059669" stroke-width="2" points="56,203.9311475409836 238,195.09672131147542 420,195.09672131147542 602,165.94590163934424"/><text x="56" y="234" text-anchor="middle" font-size="10" fill="#64748b">09-21</text><text x="238" y="234" text-anchor="middle" font-size="10" fill="#64748b">09-22</text><text x="420" y="234" text-anchor="middle" font-size="10" fill="#64748b">09-23</text><text x="602" y="234" text-anchor="middle" font-size="10" fill="#64748b">10-04</text><text x="602" y="22" text-anchor="end" font-size="10" fill="#2563eb">Worker 2607</text><text x="602" y="35" text-anchor="end" font-size="10" fill="#7c3aed">UI 940</text><text x="602" y="48" text-anchor="end" font-size="10" fill="#059669">Tests 1509</text></svg>
