<?xml version="1.0" encoding="UTF-8"?><svg xmlns="http://www.w3.org/2000/svg" width="640" height="250" viewBox="0 0 640 250" font-family="system-ui, sans-serif" aria-label="Codebase size"><rect width="100%" height="100%" fill="#f8fafc"/><text x="56" y="22" font-size="13" font-weight="700" fill="#0f172a">Codebase size (lines)</text><line x1="56" y1="208" x2="602" y2="208" stroke="#dbe4ed"/><text x="49" y="212" text-anchor="end" font-size="10" fill="#64748b">0</text><line x1="56" y1="165.5" x2="602" y2="165.5" stroke="#dbe4ed"/><text x="49" y="169.5" text-anchor="end" font-size="10" fill="#64748b">2950</text><line x1="56" y1="123" x2="602" y2="123" stroke="#dbe4ed"/><text x="49" y="127" text-anchor="end" font-size="10" fill="#64748b">5900</text><line x1="56" y1="80.5" x2="602" y2="80.5" stroke="#dbe4ed"/><text x="49" y="84.5" text-anchor="end" font-size="10" fill="#64748b">8850</text><line x1="56" y1="38" x2="602" y2="38" stroke="#dbe4ed"/><text x="49" y="42" text-anchor="end" font-size="10" fill="#64748b">11800</text><line x1="56" y1="38" x2="56" y2="208" stroke="#94a3b8"/><line x1="56" y1="208" x2="602" y2="208" stroke="#94a3b8"/><polyline fill="none" stroke="#2563eb" stroke-width="2" points="56,196.47457627118644 192.5,191.82118644067796 329,191.82118644067796 465.5,169.79322033898305 602,151.3813559322034"/><polyline fill="none" stroke="#7c3aed" stroke-width="2" points="56,202.09322033898306 192.5,200.29237288135593 329,200.30677966101695 465.5,194.45762711864407 602,164.27542372881356"/><polyline fill="none" stroke="#059669" stroke-width="2" points="56,205.89661016949154 192.5,201.32966101694916 329,201.32966101694916 465.5,181.0593220338983 602,167.61779661016948"/><text x="56" y="234" text-anchor="middle" font-size="10" fill="#64748b">09-21</text><text x="192.5" y="234" text-anchor="middle" font-size="10" fill="#64748b">09-22</text><text x="329" y="234" text-anchor="middle" font-size="10" fill="#64748b">09-23</text><text x="465.5" y="234" text-anchor="middle" font-size="10" fill="#64748b">10-04</text><text x="602" y="234" text-anchor="middle" font-size="10" fill="#64748b">10-05</text><text x="602" y="22" text-anchor="end" font-size="10" fill="#2563eb">Worker 3930</text><text x="602" y="35" text-anchor="end" font-size="10" fill="#7c3aed">UI 3035</text><text x="602" y="48" text-anchor="end" font-size="10" fill="#059669">Tests 2803</text></svg>
